<?xml version="1.0" encoding="utf-8"?>
<!-- Generator: Adobe Illustrator 16.0.4, SVG Export Plug-In . SVG Version: 6.00 Build 0)  -->
<!DOCTYPE svg PUBLIC "-//W3C//DTD SVG 1.1//EN" "http://www.w3.org/Graphics/SVG/1.1/DTD/svg11.dtd">
<svg version="1.1" id="Layer_1" xmlns="http://www.w3.org/2000/svg" xmlns:xlink="http://www.w3.org/1999/xlink" x="0px" y="0px"
	 width="72px" height="72px" viewBox="0 0 72 72" enable-background="new 0 0 72 72" xml:space="preserve">
<g>
	<path fill="#F18F20" d="M33.375,25.823c-1.53-1.648-3.012-2.746-4.444-3.296c-1.433-0.549-2.875-0.825-4.326-0.825
		c-2.159,0-4.111,0.383-5.857,1.148c-1.747,0.765-3.248,1.825-4.503,3.179c-1.257,1.354-2.228,2.934-2.914,4.738
		c-0.687,1.805-1.03,3.748-1.03,5.827c0,2.237,0.343,4.297,1.03,6.181c0.686,1.884,1.657,3.512,2.914,4.886
		c1.255,1.375,2.756,2.454,4.503,3.237c1.746,0.786,3.698,1.178,5.857,1.178c1.687,0,3.326-0.402,4.915-1.207
		c1.589-0.803,3.07-2.09,4.445-3.855l6.121,4.357c-1.884,2.588-4.179,4.473-6.887,5.649c-2.708,1.177-5.592,1.766-8.653,1.766
		c-3.218,0-6.172-0.521-8.859-1.559c-2.688-1.04-5.003-2.513-6.946-4.416c-1.942-1.902-3.464-4.188-4.562-6.857
		c-1.1-2.667-1.648-5.631-1.648-8.888c0-3.335,0.549-6.367,1.648-9.094c1.097-2.728,2.62-5.053,4.562-6.976
		c1.943-1.923,4.258-3.404,6.946-4.445c2.687-1.039,5.641-1.56,8.859-1.56c2.825,0,5.445,0.5,7.858,1.5
		c2.414,1.001,4.659,2.699,6.738,5.092L33.375,25.823z"/>
	<path fill="#6D6E71" d="M42.618,16.052h12.008c1.568,0,3.157,0.128,4.769,0.382c1.606,0.256,3.049,0.786,4.324,1.589
		c1.275,0.805,2.315,1.923,3.12,3.356c0.805,1.433,1.206,3.326,1.206,5.68c0,2.119-0.627,3.964-1.884,5.533
		c-1.255,1.57-3.117,2.61-5.592,3.12v0.118c1.375,0.118,2.63,0.441,3.769,0.972c1.137,0.528,2.118,1.235,2.943,2.118
		c0.823,0.882,1.46,1.933,1.912,3.149c0.453,1.218,0.677,2.552,0.677,4.002c0,2.395-0.46,4.347-1.383,5.857
		c-0.921,1.512-2.08,2.7-3.472,3.562c-1.395,0.865-2.906,1.452-4.534,1.767c-1.629,0.313-3.148,0.471-4.561,0.471H42.618V16.052z
		 M46.503,34.063h8.063c2.001,0,3.63-0.244,4.885-0.735c1.257-0.49,2.238-1.089,2.943-1.795c0.707-0.707,1.178-1.462,1.414-2.267
		c0.233-0.804,0.354-1.54,0.354-2.208c0-1.452-0.247-2.658-0.738-3.62c-0.49-0.961-1.148-1.727-1.972-2.296
		c-0.824-0.568-1.786-0.971-2.884-1.206c-1.1-0.236-2.257-0.354-3.473-0.354h-8.594V34.063z M46.503,54.195h8.887
		c2.277,0,4.11-0.274,5.504-0.824c1.393-0.549,2.463-1.235,3.208-2.06c0.745-0.825,1.246-1.697,1.501-2.62
		c0.255-0.921,0.383-1.755,0.383-2.501c0-1.531-0.295-2.846-0.884-3.944c-0.587-1.099-1.353-1.992-2.294-2.679
		c-0.942-0.687-2.012-1.187-3.208-1.501c-1.199-0.313-2.405-0.471-3.621-0.471h-9.476V54.195z"/>
</g>
</svg>
